<svg xmlns="http://www.w3.org/2000/svg" aria-hidden="true" overflow="hidden" style="position:absolute;width:0;height:0">
  <defs>
    <symbol id="icon-facebook" viewBox="0 0 32 32">
      <path d="M0 16C0 7.163 7.163 0 16 0s16 7.163 16 16-7.163 16-16 16S0 24.837 0 16zm17.668 9.408v-8.705h2.403l.319-3h-2.721l.004-1.501c0-.782.074-1.202 1.198-1.202h1.502V8H17.97c-2.887 0-3.903 1.455-3.903 3.902v1.801h-1.799v3h1.799v8.705h3.602z"/>
    </symbol>
    <symbol id="icon-instagram" viewBox="0 0 32 32">
      <path d="M0 16C0 7.163 7.163 0 16 0s16 7.163 16 16-7.163 16-16 16S0 24.837 0 16zm16.001-8.533c-2.317 0-2.608.01-3.519.052-.909.042-1.528.185-2.071.396-.561.218-1.037.51-1.512.984s-.766.95-.985 1.511c-.212.543-.356 1.163-.396 2.071-.041.91-.051 1.201-.051 3.519s.01 2.607.052 3.518c.042.909.186 1.529.396 2.071.218.561.51 1.037.984 1.512s.95.767 1.511.985c.543.211 1.163.355 2.072.396.91.041 1.201.052 3.518.052s2.608-.01 3.518-.052c.908-.042 1.529-.185 2.072-.396.561-.218 1.036-.51 1.511-.985s.766-.95.985-1.512c.21-.543.354-1.163.396-2.071.041-.91.052-1.2.052-3.518s-.011-2.608-.052-3.519c-.043-.909-.187-1.529-.396-2.071-.219-.561-.51-1.037-.985-1.512s-.949-.766-1.511-.984c-.544-.211-1.164-.355-2.073-.396-.91-.041-1.2-.052-3.518-.052h.003z"/>
      <path d="M15.235 9.005h.766c2.278 0 2.548.008 3.448.049.832.038 1.284.177 1.584.294.398.155.682.34.981.638s.484.583.639.981c.117.3.256.752.294 1.584.041.899.05 1.17.05 3.447s-.009 2.548-.05 3.447c-.038.832-.177 1.284-.294 1.584-.155.398-.34.682-.639.98s-.582.483-.981.638c-.3.117-.752.256-1.584.294-.9.041-1.17.05-3.448.05s-2.549-.009-3.448-.05c-.832-.038-1.284-.177-1.585-.294-.398-.155-.683-.34-.981-.638s-.484-.582-.639-.981c-.117-.3-.256-.752-.294-1.584-.041-.9-.049-1.17-.049-3.449s.008-2.548.049-3.447c.038-.832.177-1.284.294-1.584.155-.398.34-.683.639-.981s.583-.484.981-.639c.301-.117.753-.256 1.585-.294.787-.036 1.092-.046 2.683-.048v.002zm5.32 1.417a1.024 1.024 0 1 0 0 2.048 1.024 1.024 0 0 0 0-2.048zM16 11.618a4.382 4.382 0 1 0 0 8.764 4.382 4.382 0 0 0 0-8.764z"/>
      <path d="M16.001 13.155a2.844 2.844 0 1 1 .001 5.689 2.844 2.844 0 0 1-.001-5.689z"/>
    </symbol>
    <symbol id="icon-menu" viewBox="0 0 32 32">
      <path d="M29.333 24.007c0 0.733-0.595 1.327-1.327 1.327h-10.68c-0.733 0-1.327-0.594-1.327-1.327s0.594-1.327 1.327-1.327h10.68c0.733 0 1.327 0.593 1.327 1.327zM29.333 16c0 0.733-0.595 1.327-1.327 1.327h-24.013c-0.733 0-1.327-0.594-1.327-1.327s0.594-1.327 1.327-1.327h24.013c0.733 0 1.327 0.595 1.327 1.327zM28.007 9.32c0.733 0 1.327-0.594 1.327-1.327s-0.594-1.327-1.327-1.327h-16.013c-0.733 0-1.327 0.594-1.327 1.327s0.594 1.327 1.327 1.327h16.013z"></path>
    </symbol>
    <symbol id="icon-close" viewBox="0 0 24 24">
      <path stroke-linejoin="miter" stroke-linecap="round" stroke-miterlimit="4" stroke-width="2" d="M9 6l6 6 6-6M9 18l6-6 6 6"></path>
    </symbol>

    <symbol id="icon-name" viewBox="0 0 33 32">
      <path d="M6.381 28s-2 0-2-2 2-8 12-8 12 6 12 8-2 2-2 2h-20zM16.381 16c3.314 0 6-2.686 6-6s-2.686-6-6-6v0c-3.314 0-6 2.686-6 6s2.686 6 6 6v0z"></path>
    </symbol>
    <symbol id="icon-email" viewBox="0 0 32 32">
      <path d="M23.373 19.475c0 1.344 0.382 1.88 1.382 1.88 2.229 0 3.648-2.84 3.648-7.563 0-7.219-5.261-10.675-11.829-10.675-6.757 0-12.902 4.531-12.902 13.094 0 8.18 5.376 12.634 13.632 12.634 2.803 0 4.684-0.307 7.563-1.267l0.617 2.571c-2.841 0.923-5.878 1.191-8.219 1.191-10.829 0-16.629-5.953-16.629-15.13 0-9.253 6.722-15.552 15.976-15.552 9.638 0 14.744 5.76 14.744 12.826 0 5.99-1.88 10.56-7.794 10.56-2.69 0-4.454-1.075-4.684-3.458-0.691 2.649-2.534 3.458-5.032 3.458-3.34 0-6.144-2.575-6.144-7.757 0-5.222 2.459-8.448 6.875-8.448 2.343 0 3.802 0.922 4.451 2.381l1.115-2.035h3.226v11.291h0.003zM18.651 14.408c0-2.11-1.576-2.996-2.882-2.996-1.421 0-2.994 1.15-2.994 4.531 0 2.689 1.191 4.186 2.994 4.186 1.267 0 2.882-0.806 2.882-3.034v-2.687z"></path>
    </symbol>
    <symbol id="icon-country" viewBox="0 0 32 32">
      <path d="M16 1c-0.146-0.005-0.317-0.008-0.488-0.008-8.391 0-15.227 6.66-15.511 14.982l-0.001 0.026c0.284 8.348 7.12 15.008 15.512 15.008 0.172 0 0.343-0.003 0.513-0.008l-0.025 0.001c0.146 0.005 0.317 0.008 0.488 0.008 8.391 0 15.227-6.66 15.511-14.982l0.001-0.026c-0.284-8.348-7.12-15.008-15.512-15.008-0.172 0-0.343 0.003-0.513 0.008l0.025-0.001zM29.42 14.6l-2.46-0.6c-0.5-0.14-0.54-0.18-0.58-0.24-0.3-0.4-0.64-0.94-0.96-1.46 0-0.18-0.26-0.46-0.32-0.62s0.699-1.2 1.019-1.68c0.345-0.358 0.744-0.663 1.181-0.9 1.117 1.543 1.875 3.414 2.114 5.445l0.005 0.055zM16 3.501l-0.18 0.34c-0.009-0.030-0.013-0.065-0.013-0.1s0.005-0.070 0.014-0.103l-0.001 0.003c0 0.12-0.3 0.3-0.5 0.501l-0.6 0.58c-0.293 0.305-0.473 0.72-0.473 1.177 0 0.369 0.117 0.71 0.317 0.988l-0.004-0.005h-0.24c-0.662 0.020-1.245 0.343-1.616 0.835l-0.004 0.005c-0.302 0.413-0.484 0.931-0.484 1.492 0 0.23 0.031 0.454 0.088 0.666l-0.004-0.018v0.14c-0.292 0.052-0.579 0.126-0.86 0.22l-0.48 0.16-1.28 0.42c-0.777 0.233-1.378 0.827-1.615 1.583l-0.005 0.017c-0.051 0.168-0.080 0.361-0.080 0.56 0 0.497 0.182 0.952 0.482 1.302l-0.002-0.003c0.789 0.851 1.698 1.576 2.704 2.151l0.056 0.029c0.95 0.641 2.077 1.099 3.292 1.294l0.048 0.006h3.36c0.034-0.002 0.075-0.003 0.115-0.003 0.809 0 1.525 0.401 1.96 1.015l0.005 0.007c0.171 0.176 0.276 0.417 0.276 0.682 0 0.063-0.006 0.125-0.017 0.185l0.001-0.006c-0.043 0.267-0.149 0.504-0.302 0.703l0.003-0.004c-0.971 0.798-1.655 1.914-1.895 3.186l-0.005 0.034c-0.304 1.099-0.632 2.017-1.015 2.904l0.055-0.144c-0.128 0.288-0.338 0.851-0.535 1.42l-0.085 0.28c-0.143 0.011-0.309 0.017-0.476 0.017-0.541 0-1.066-0.065-1.569-0.186l0.045 0.009c0.024-0.21 0.037-0.453 0.037-0.699 0-1.315-0.387-2.54-1.053-3.566l0.016 0.026c-0.648-0.762-1.046-1.753-1.059-2.838l-0-0.003c0.023-0.164 0.036-0.354 0.036-0.546 0-1.887-1.238-3.485-2.947-4.025l-0.030-0.008c-2.275-1.428-4.196-3.185-5.762-5.228l-0.038-0.052c2.297-4.43 6.848-7.404 12.094-7.404 0.079 0 0.159 0.001 0.238 0.002l-0.012-0zM2.5 16c0-0.779 0.080-1.557 0.24-2.32 1.632 1.945 3.58 3.561 5.776 4.787l0.104 0.054c1.2 0.44 1.38 0.899 1.38 2.24 0.005 1.744 0.656 3.335 1.727 4.547l-0.006-0.007c0.206 0.585 0.324 1.26 0.324 1.963 0 0.26-0.016 0.516-0.048 0.767l0.003-0.030c-5.416-1.443-9.364-6.242-9.5-11.985l-0-0.015zM19.14 28.16c0-0.3 0.24-0.64 0.36-0.96 0.406-0.892 0.782-1.957 1.069-3.058l0.031-0.142c0.165-0.699 0.549-1.292 1.074-1.716l0.006-0.005c0.676-0.665 1.106-1.579 1.14-2.593l0-0.006c0.003-0.054 0.005-0.117 0.005-0.18 0-0.916-0.36-1.747-0.945-2.361l0.001 0.001c-0.906-1.105-2.27-1.804-3.798-1.804-0.071 0-0.142 0.002-0.212 0.005l0.010-0h-3.18c-1.559-0.431-2.904-1.199-4.006-2.226l0.006 0.005 0.939-0.32 0.541-0.16c0.193-0.091 0.419-0.143 0.657-0.143 0.036 0 0.072 0.001 0.107 0.004l-0.005-0 0.18 0.3c0.22 0.406 0.643 0.678 1.129 0.678 0.177 0 0.346-0.036 0.499-0.101l-0.008 0.003c0.447-0.212 0.751-0.66 0.751-1.178 0-0.151-0.026-0.296-0.073-0.431l0.003 0.009v-0.36c-0.22-0.6-0.48-1.44-0.64-2 0.036 0.002 0.077 0.002 0.119 0.002 1.047 0 1.961-0.566 2.454-1.409l0.007-0.013c0.079-0.206 0.124-0.445 0.124-0.694 0-0.5-0.184-0.957-0.487-1.308l0.002 0.003c0.236-0.212 0.452-0.435 0.652-0.67l0.008-0.010c0.289-0.345 0.465-0.793 0.465-1.282 0-0.112-0.009-0.222-0.027-0.329l0.002 0.012c2.914 0.44 5.469 1.73 7.467 3.607l-0.007-0.007c-0.617 0.381-1.139 0.846-1.57 1.388l-0.009 0.012c-0.43 0.619-0.856 1.333-1.232 2.075l-0.048 0.104c-0.102 0.285-0.161 0.613-0.161 0.955 0 0.693 0.242 1.33 0.645 1.831l-0.004-0.006c0.36 0.62 0.76 1.22 1.12 1.72 0.487 0.61 1.185 1.032 1.982 1.157l0.018 0.002c0.44 0.12 2 0.44 3.1 0.66-0.749 5.492-4.869 9.842-10.178 10.926l-0.083 0.014z"></path>
    </symbol>
    <symbol id="icon-company" viewBox="0 0 32 32">
      <path d="M2 28h28v2h-28v-2zM27 11c0.552 0 1-0.448 1-1 0-0 0-0.001 0-0.001v0-3c0-0 0-0 0-0 0-0.43-0.272-0.797-0.653-0.938l-0.007-0.002-11-4c-0.101-0.038-0.218-0.059-0.34-0.059s-0.239 0.022-0.347 0.062l0.007-0.002-11 4c-0.388 0.143-0.66 0.51-0.66 0.94 0 0 0 0 0 0v0 3c0 0 0 0.001 0 0.001 0 0.552 0.448 1 1 1 0 0 0.001 0 0.001 0h1v13h-2v2h24v-2h-2v-13h1zM6 7.7l10-3.639 10 3.64v1.301h-20v-1.301zM18 24h-4v-13h4v13zM8 11h4v13h-4v-13zM24 24h-4v-13h4v13z"></path>
    </symbol>
    <symbol id="icon-phone" viewBox="0 0 33 32">
      <path d="M29.665 25.14c-0.188 0.791-0.611 1.463-1.192 1.956l-0.005 0.004c-1.297 1.319-3.101 2.136-5.096 2.136-0.012 0-0.025-0-0.037-0h-0.476c-1.981-0.101-3.924-0.592-5.716-1.442-0.434-0.204-0.857-0.395-1.36-0.627-2.186-1.247-4.069-2.695-5.731-4.365l-0.001-0.001c-2.169-2.037-3.962-4.443-5.285-7.123l-0.065-0.145c-0.687-1.37-1.197-2.961-1.445-4.637l-0.010-0.086c-0.098-0.49-0.154-1.054-0.154-1.631 0-1.246 0.262-2.431 0.734-3.502l-0.022 0.056c0.448-0.753 0.967-1.401 1.562-1.97l0.003-0.003c0.545-0.592 1.316-0.969 2.175-0.993l0.004-0c0.936 0.102 1.747 0.572 2.295 1.259l0.005 0.007c0.626 0.693 1.36 1.36 2.027 2.067l0.859 0.846c0.492 0.432 0.816 1.044 0.87 1.732l0.001 0.009c0 0.002 0 0.004 0 0.005 0 0.643-0.243 1.229-0.642 1.671l0.002-0.002c-0.274 0.337-0.545 0.638-0.831 0.926l0.001-0.001-0.286 0.3c-0.163 0.152-0.293 0.338-0.377 0.547l-0.004 0.010c-0.049 0.139-0.077 0.3-0.077 0.467 0 0.061 0.004 0.121 0.011 0.18l-0.001-0.007c0.231 0.616 0.573 1.143 1.007 1.579l-0-0c0.693 0.939 1.36 1.755 2.109 2.722 1.282 1.474 2.778 2.719 4.45 3.697l0.084 0.045c0.165 0.133 0.36 0.223 0.571 0.259 0.186 0.028 0.374 0 0.543-0.083 0.533-0.289 0.984-0.657 1.356-1.094l0.006-0.007c0.47-0.575 1.15-0.964 1.921-1.048l0.013-0.001c0.764 0.003 1.454 0.32 1.946 0.83l0.001 0.001c0.311 0.268 0.606 0.555 0.884 0.857l0.408 0.436 0.423 0.408c0.258 0.259 0.503 0.491 0.747 0.762 0.448 0.386 0.854 0.792 1.228 1.225l0.013 0.015c0.391 0.498 0.587 1.122 0.557 1.755z"></path>
    </symbol>
    <symbol id="icon-clock" viewBox="0 0 34 34">
      <path d="M16 0c8.837 0 16 7.163 16 16s-7.163 16-16 16v0c-8.837 0-16-7.163-16-16s7.163-16 16-16v0zM3 16c0 7.18 5.82 13 13 13s13-5.82 13-13v0c0-7.18-5.82-13-13-13s-13 5.82-13 13v0zM17 9.5v5.984l4.056 1.624c0.535 0.237 0.901 0.763 0.901 1.375 0 0.828-0.672 1.5-1.5 1.5-0.185 0-0.362-0.033-0.525-0.094l0.010 0.003-5-2c-0.556-0.228-0.941-0.765-0.942-1.392v-7c0-0.828 0.672-1.5 1.5-1.5s1.5 0.672 1.5 1.5v0z"></path>
    </symbol>
  </defs>
</svg>
