<svg width="31" height="564" viewBox="0 0 31 564" fill="none" xmlns="http://www.w3.org/2000/svg">
<path d="M15.4902 1.8419L15.351 563.487" stroke="#B9ADB6" stroke-width="10"/>
<path d="M30 14.9999C30 23.2842 23.2843 29.9999 15 29.9999C6.71573 29.9999 0 23.2842 0 14.9999C0 6.71567 6.71573 -6.10352e-05 15 -6.10352e-05C23.2843 -6.10352e-05 30 6.71567 30 14.9999Z" fill="#B9ADB6"/>
<path d="M31 156C31 164.284 24.2843 171 16 171C7.71573 171 1 164.284 1 156C1 147.716 7.71573 141 16 141C24.2843 141 31 147.716 31 156Z" fill="#B9ADB6"/>
<path d="M30 363C30 371.284 23.2843 378 15 378C6.71573 378 0 371.284 0 363C0 354.716 6.71573 348 15 348C23.2843 348 30 354.716 30 363Z" fill="#B9ADB6"/>
</svg>
