<svg width="32" height="765" viewBox="0 0 32 765" fill="none" xmlns="http://www.w3.org/2000/svg">
<path d="M16.9898 2.72767L15.1242 764.782" stroke="#6DD42B" stroke-width="10"/>
<path d="M31.0001 15C31.0001 23.2843 24.2844 30 16.0001 30C7.71585 30 1.00012 23.2843 1.00012 15C1.00012 6.71573 7.71585 0 16.0001 0C24.2844 0 31.0001 6.71573 31.0001 15Z" fill="#6DD42B"/>
<path d="M31.0001 270C31.0001 278.284 24.2844 285 16.0001 285C7.71585 285 1.00012 278.284 1.00012 270C1.00012 261.716 7.71585 255 16.0001 255C24.2844 255 31.0001 261.716 31.0001 270Z" fill="#6DD42B"/>
<path d="M31.033 501.5C31.033 509.784 24.3172 516.5 16.033 516.5C7.74869 516.5 1.03296 509.784 1.03296 501.5C1.03296 493.216 7.74869 486.5 16.033 486.5C24.3172 486.5 31.033 493.216 31.033 501.5Z" fill="#6DD42B"/>
<path d="M29.9919 638C29.9919 646.284 23.2762 653 14.9919 653C6.70767 653 -0.00805426 646.284 -0.00805426 638C-0.00805426 629.716 6.70767 623 14.9919 623C23.2762 623 29.9919 629.716 29.9919 638Z" fill="#6DD42B"/>
</svg>
